<svg width="127" height="34" viewBox="0 0 127 34" fill="none" xmlns="http://www.w3.org/2000/svg">
<path d="M119.079 25.4655H126.182C126.474 25.4655 126.62 25.6409 126.62 25.9916V28.7538C126.62 29.0754 126.474 29.2361 126.182 29.2361H114.212C113.891 29.2361 113.73 29.0754 113.73 28.7538V26.8685C113.73 26.547 113.774 26.2985 113.861 26.1231C113.949 25.9478 114.095 25.7139 114.3 25.4216L121.49 16.5211H114.519C114.198 16.5211 114.037 16.3604 114.037 16.0388V13.2766C114.037 12.9259 114.198 12.7505 114.519 12.7505H123.902C124.866 12.7505 125.539 12.9697 125.919 13.4082C126.299 13.8174 126.489 14.5481 126.489 15.6004C126.489 16.185 126.299 16.7111 125.919 17.1788L119.079 25.4655Z" fill="#F5F7FA"/>
<path d="M107.054 27.1754C106.469 27.9646 105.724 28.5784 104.817 29.0169C103.911 29.4261 102.947 29.6307 101.924 29.6307C100.287 29.6307 98.8984 29.2361 97.7585 28.4469C96.6477 27.6577 95.8001 26.6054 95.2155 25.2901C94.6601 23.9747 94.3824 22.5278 94.3824 20.9494C94.3824 19.3126 94.6893 17.8511 95.3032 16.565C95.917 15.2496 96.7939 14.212 97.9338 13.452C99.103 12.692 100.462 12.312 102.011 12.312C103.298 12.312 104.379 12.5459 105.256 13.0135C106.162 13.4812 106.878 14.0366 107.404 14.6796C107.638 14.0073 108.018 13.5251 108.544 13.2328C109.1 12.9112 109.757 12.7505 110.517 12.7505H110.737C111.058 12.7505 111.219 12.9258 111.219 13.2766V28.7538C111.219 29.0753 111.058 29.2361 110.737 29.2361H107.492C107.2 29.2361 107.054 29.0753 107.054 28.7538V27.1754ZM102.844 25.6847C103.4 25.6847 103.999 25.5678 104.642 25.3339C105.314 25.0708 105.884 24.6032 106.352 23.9309C106.82 23.2586 107.054 22.2648 107.054 20.9494C107.054 19.6341 106.82 18.6549 106.352 18.0118C105.884 17.3395 105.329 16.9011 104.686 16.6965C104.043 16.4627 103.444 16.3457 102.888 16.3457C102.304 16.3457 101.675 16.4773 101.003 16.7403C100.36 17.0034 99.8045 17.4711 99.3369 18.1434C98.8984 18.8157 98.6792 19.751 98.6792 20.9494C98.6792 22.2063 98.913 23.1855 99.3807 23.887C99.8776 24.5593 100.448 25.027 101.091 25.2901C101.734 25.5531 102.318 25.6847 102.844 25.6847Z" fill="#F5F7FA"/>
<path d="M80.6611 14.5043C81.1581 13.832 81.8011 13.3058 82.5903 12.9258C83.3795 12.5166 84.3149 12.312 85.3964 12.312C87.384 12.312 88.977 12.9405 90.1755 14.1973C91.4031 15.425 92.0169 17.2372 92.0169 19.6341V28.7538C92.0169 29.0753 91.8562 29.2361 91.5346 29.2361H88.2901C87.9686 29.2361 87.8078 29.0753 87.8078 28.7538V20.1602C87.8078 18.728 87.4717 17.7195 86.7994 17.1349C86.1271 16.5211 85.2941 16.2142 84.3003 16.2142C83.248 16.2142 82.3711 16.5211 81.6696 17.1349C80.9973 17.7488 80.6611 18.801 80.6611 20.2918V28.7538C80.6611 29.0753 80.515 29.2361 80.2227 29.2361H77.022C76.7005 29.2361 76.5397 29.0753 76.5397 28.7538V5.38454C76.5397 5.03378 76.7005 4.8584 77.022 4.8584H77.2412C78.352 4.8584 79.1996 5.1507 79.7842 5.7353C80.3688 6.29066 80.6611 7.22602 80.6611 8.54136V14.5043Z" fill="#F5F7FA"/>
<path d="M71.0997 0.302223C71.0997 0.13531 71.235 0 71.402 0V0C72.7373 0 73.8197 1.08248 73.8197 2.41778V32.64C73.8197 33.3911 73.2108 34 72.4597 34V34C71.7086 34 71.0997 33.3911 71.0997 32.64V0.302223Z" fill="url(#paint0_linear_119_3463)"/>
<path d="M57.0561 22.4842C57.2022 23.6534 57.7138 24.5449 58.5906 25.1587C59.4675 25.7726 60.5783 26.0795 61.9229 26.0795C63.0336 26.0795 63.9543 25.9626 64.6851 25.7287C65.4158 25.4949 66.1466 25.1733 66.8773 24.7641C67.1404 24.5887 67.3742 24.5011 67.5788 24.5011C67.9004 24.5011 68.0611 24.7057 68.0611 25.1149C68.0611 25.7287 67.8273 26.3864 67.3596 27.0879C66.9212 27.7894 66.2196 28.4032 65.2551 28.9294C64.2905 29.4263 63.0044 29.6747 61.3967 29.6747C59.8183 29.6747 58.3714 29.3532 57.0561 28.7102C55.77 28.0379 54.7469 27.0587 53.9869 25.7726C53.227 24.4572 52.847 22.8496 52.847 20.9496C52.847 19.2835 53.1685 17.8074 53.8116 16.5213C54.4839 15.2352 55.4192 14.2268 56.6176 13.496C57.8453 12.7653 59.2776 12.3999 60.9144 12.3999C62.6682 12.3999 64.0859 12.7653 65.1674 13.496C66.2781 14.1975 67.0819 15.1183 67.5788 16.2582C68.105 17.3982 68.368 18.6112 68.368 19.8974C68.368 20.3358 68.3534 20.7304 68.3242 21.0812C68.3242 21.4027 68.3096 21.6804 68.2803 21.9142C68.2511 22.2942 68.0027 22.4842 67.535 22.4842H57.0561ZM57.0561 19.4589H64.1589C64.2174 18.962 64.1589 18.4505 63.9836 17.9243C63.8374 17.369 63.5159 16.9013 63.019 16.5213C62.5221 16.1413 61.8206 15.9513 60.9144 15.9513C59.8037 15.9513 58.9122 16.2729 58.2399 16.9159C57.5968 17.5297 57.2022 18.3774 57.0561 19.4589Z" fill="#F5F7FA"/>
<path d="M38.7356 22.4842C38.8817 23.6534 39.3933 24.5449 40.2702 25.1587C41.1471 25.7726 42.2578 26.0795 43.6024 26.0795C44.7131 26.0795 45.6338 25.9626 46.3646 25.7287C47.0953 25.4949 47.8261 25.1733 48.5568 24.7641C48.8199 24.5887 49.0537 24.5011 49.2583 24.5011C49.5799 24.5011 49.7406 24.7057 49.7406 25.1149C49.7406 25.7287 49.5068 26.3864 49.0391 27.0879C48.6007 27.7894 47.8991 28.4032 46.9346 28.9294C45.97 29.4263 44.6839 29.6747 43.0762 29.6747C41.4978 29.6747 40.0509 29.3532 38.7356 28.7102C37.4495 28.0379 36.4264 27.0587 35.6665 25.7726C34.9065 24.4572 34.5265 22.8496 34.5265 20.9496C34.5265 19.2835 34.848 17.8074 35.4911 16.5213C36.1634 15.2352 37.0987 14.2268 38.2971 13.496C39.5248 12.7653 40.9571 12.3999 42.5939 12.3999C44.3477 12.3999 45.7654 12.7653 46.8469 13.496C47.9576 14.1975 48.7614 15.1183 49.2583 16.2582C49.7845 17.3982 50.0475 18.6112 50.0475 19.8974C50.0475 20.3358 50.0329 20.7304 50.0037 21.0812C50.0037 21.4027 49.9891 21.6804 49.9599 21.9142C49.9306 22.2942 49.6822 22.4842 49.2145 22.4842H38.7356ZM38.7356 19.4589H45.8384C45.8969 18.962 45.8384 18.4505 45.6631 17.9243C45.5169 17.369 45.1954 16.9013 44.6985 16.5213C44.2016 16.1413 43.5001 15.9513 42.5939 15.9513C41.4832 15.9513 40.5917 16.2729 39.9194 16.9159C39.2763 17.5297 38.8817 18.3774 38.7356 19.4589Z" fill="#F5F7FA"/>
<path d="M27.2296 15.162C27.7265 14.2266 28.3257 13.5982 29.0273 13.2766C29.7288 12.9259 30.6787 12.7505 31.8772 12.7505H32.3595C32.6518 12.7505 32.7979 12.9259 32.7979 13.2766V16.2581C32.7979 16.6088 32.6518 16.7842 32.3595 16.7842H31.2195C29.6119 16.7842 28.5596 17.1934 28.0627 18.0119C27.595 18.8011 27.3612 19.9703 27.3612 21.5194V28.7538C27.3612 29.0754 27.215 29.2361 26.9227 29.2361H23.6343C23.3713 29.2361 23.2397 29.0754 23.2397 28.7538V13.2766C23.2397 12.9259 23.3713 12.7505 23.6343 12.7505H23.8536C25.7535 12.7505 26.8789 13.5543 27.2296 15.162Z" fill="#F5F7FA"/>
<path d="M11.6478 29.6745C9.39714 29.6745 7.42412 29.1776 5.72879 28.1838C4.03346 27.1607 2.71812 25.7139 1.78276 23.8432C0.847408 21.9725 0.37973 19.7364 0.37973 17.1349C0.37973 14.475 0.876638 12.2097 1.87045 10.339C2.86427 8.43903 4.22346 6.97753 5.94802 5.95449C7.70181 4.93144 9.70405 4.41992 11.9548 4.41992C13.1532 4.41992 14.2055 4.52223 15.1116 4.72684C16.0177 4.93144 16.8508 5.19451 17.6107 5.51604C18.4584 5.92526 18.9845 6.37832 19.1891 6.87523C19.423 7.37214 19.4668 8.00058 19.3207 8.76056L19.0576 9.85668C18.9407 10.1782 18.7945 10.339 18.6192 10.339C18.473 10.339 18.2538 10.2659 17.9615 10.1197C17.0554 9.62284 16.1492 9.24285 15.2431 8.97978C14.3662 8.68748 13.2993 8.54133 12.0424 8.54133C9.87943 8.54133 8.12564 9.25746 6.78107 10.6897C5.4365 12.0928 4.76421 14.2412 4.76421 17.1349C4.76421 19.941 5.45111 22.0455 6.82491 23.4486C8.19872 24.8516 9.98174 25.5531 12.174 25.5531C13.7232 25.5531 15.0531 25.2462 16.1639 24.6324C17.2746 24.0185 18.1076 23.3901 18.663 22.747C18.8092 22.5717 18.9261 22.4694 19.0138 22.4401C19.1307 22.3817 19.2476 22.3524 19.3645 22.3524C19.803 22.3524 20.0222 22.7032 20.0222 23.4047C20.0222 23.9016 19.876 24.5008 19.5837 25.2023C19.2914 25.9039 18.8092 26.6054 18.1369 27.3069C17.4938 27.9792 16.6315 28.5492 15.55 29.0168C14.4977 29.4553 13.197 29.6745 11.6478 29.6745Z" fill="#F5F7FA"/>
<defs>
<linearGradient id="paint0_linear_119_3463" x1="71.0997" y1="1.64658e-06" x2="76.5051" y2="0.432434" gradientUnits="userSpaceOnUse">
<stop stop-color="#F97532"/>
<stop offset="1" stop-color="#F5590A"/>
</linearGradient>
</defs>
</svg>
