<svg width="20" height="20" viewBox="0 0 20 20" fill="none" xmlns="http://www.w3.org/2000/svg">
<path d="M3.33334 6.6665H16.6667M3.33334 6.6665V14C3.33334 14.9334 3.33334 15.3999 3.515 15.7564C3.67479 16.07 3.92957 16.3252 4.24317 16.485C4.59935 16.6665 5.06584 16.6665 5.99744 16.6665H14.0026C14.9342 16.6665 15.4 16.6665 15.7562 16.485C16.0698 16.3252 16.3254 16.07 16.4852 15.7564C16.6667 15.4002 16.6667 14.9344 16.6667 14.0028V6.6665M3.33334 6.6665V6C3.33334 5.06658 3.33334 4.59952 3.515 4.243C3.67479 3.9294 3.92957 3.67462 4.24317 3.51483C4.59969 3.33317 5.06675 3.33317 6.00017 3.33317H6.66668M16.6667 6.6665V5.99726C16.6667 5.06567 16.6667 4.59917 16.4852 4.243C16.3254 3.9294 16.0698 3.67462 15.7562 3.51483C15.3997 3.33317 14.9336 3.33317 14.0002 3.33317H13.3333M6.66668 3.33317H13.3333M6.66668 3.33317V1.6665M13.3333 3.33317V1.6665M12.0833 11.6665H7.91668" stroke="white" stroke-width="2" stroke-linecap="round" stroke-linejoin="round"/>
</svg>
